<svg width="12" height="12" viewBox="0 0 12 12" fill="none" xmlns="http://www.w3.org/2000/svg">
<path d="M6.62089 1.12498C6.5095 1.11891 6.398 1.13484 6.29276 1.17185C6.1925 1.20538 6.09987 1.25842 6.02021 1.32791C5.94054 1.39741 5.87543 1.48199 5.82861 1.57678C5.78179 1.67156 5.7542 1.77468 5.74743 1.88018C5.74065 1.98568 5.75483 2.09148 5.78914 2.19148L6.12889 3.18747L4.20701 3.8321L3.89051 2.87098C3.85699 2.77071 3.80395 2.67808 3.73445 2.59842C3.66495 2.51875 3.58037 2.45364 3.48559 2.40682C3.3908 2.36 3.28768 2.33241 3.18218 2.32564C3.07668 2.31886 2.97088 2.33304 2.87089 2.36735C2.44601 2.5091 2.21314 2.9636 2.35526 3.3866L2.67176 4.33573L1.67576 4.67585C1.25201 4.81797 1.02964 5.28335 1.17176 5.7071C1.20525 5.80739 1.25827 5.90007 1.32775 5.97977C1.39723 6.05948 1.4818 6.12463 1.57659 6.17149C1.67138 6.21834 1.77451 6.24597 1.88003 6.25276C1.98555 6.25956 2.09137 6.2454 2.19139 6.2111L3.18739 5.88297L3.83201 7.79285L2.87089 8.10935C2.77063 8.14288 2.678 8.19592 2.59833 8.26541C2.51867 8.33491 2.45355 8.41949 2.40673 8.51428C2.35992 8.60906 2.33232 8.71218 2.32555 8.81768C2.31878 8.92318 2.33295 9.02898 2.36726 9.12897C2.50901 9.55385 2.96351 9.78672 3.38651 9.6446L4.33564 9.3281L4.67576 10.3241C4.81789 10.7479 5.28326 10.9702 5.70701 10.8281C5.80731 10.7946 5.89998 10.7416 5.97969 10.6721C6.05939 10.6026 6.12455 10.5181 6.1714 10.4233C6.21826 10.3285 6.24588 10.2254 6.25268 10.1198C6.25948 10.0143 6.24532 9.90849 6.21101 9.80848L5.88289 8.81247L7.79276 8.16785L8.10926 9.12897C8.14279 9.22924 8.19583 9.32187 8.26533 9.40153C8.33483 9.4812 8.41941 9.54631 8.51419 9.59313C8.60898 9.63995 8.7121 9.66754 8.8176 9.67431C8.9231 9.68109 9.02889 9.66691 9.12889 9.6326C9.55376 9.49085 9.78664 9.03635 9.64451 8.61335L9.32801 7.66385L10.324 7.3241C10.7478 7.18198 10.9701 6.7166 10.828 6.29285C10.7945 6.19259 10.7414 6.09996 10.6719 6.02029C10.6025 5.94063 10.5179 5.87551 10.4231 5.82869C10.3283 5.78188 10.2252 5.75428 10.1197 5.74751C10.0142 5.74074 9.90838 5.75491 9.80839 5.78922L8.81239 6.11698L8.16776 4.2071L9.12889 3.8906C9.22915 3.85707 9.32178 3.80403 9.40145 3.73454C9.48111 3.66504 9.54623 3.58046 9.59305 3.48567C9.63986 3.39088 9.66745 3.28777 9.67423 3.18227C9.681 3.07677 9.66683 2.97097 9.63251 2.87098C9.49076 2.4476 9.03626 2.21323 8.61326 2.35535L7.66376 2.67185L7.32401 1.67585C7.27394 1.52508 7.18053 1.39242 7.05548 1.29444C6.93042 1.19646 6.77926 1.13752 6.62089 1.12498V1.12498ZM6.63289 4.72272L7.27714 6.63297L5.36726 7.27723L4.72226 5.36735L6.63289 4.72272Z" fill="#212529"/>
</svg>
