<svg width="20" height="20" viewBox="0 0 20 20" fill="none" xmlns="http://www.w3.org/2000/svg">
<g clip-path="url(#clip0_263_8)">
<path d="M16.9312 3.63376C15.6344 3.03859 14.2659 2.61381 12.86 2.37001C12.8472 2.36786 12.8341 2.36972 12.8225 2.37531C12.8109 2.38091 12.8012 2.38997 12.795 2.40126C12.6187 2.71376 12.4237 3.12251 12.2875 3.44251C10.772 3.21252 9.23046 3.21252 7.71497 3.44251C7.56298 3.08603 7.39104 2.7384 7.19997 2.40126C7.19355 2.3901 7.18391 2.38114 7.17231 2.37556C7.16071 2.36998 7.14769 2.36805 7.13497 2.37001C5.72872 2.61251 4.35997 3.03751 3.06372 3.63376C3.05262 3.63799 3.04335 3.64594 3.03747 3.65626C0.444967 7.53001 -0.266283 11.3088 0.082467 15.04C0.083717 15.0575 0.094967 15.075 0.108717 15.0863C1.61837 16.2045 3.30696 17.0583 5.10247 17.6113C5.11514 17.6153 5.12877 17.6151 5.14135 17.6108C5.15394 17.6066 5.16484 17.5984 5.17247 17.5875C5.55747 17.0625 5.89997 16.5088 6.19497 15.9263C6.20112 15.9143 6.20322 15.9006 6.20097 15.8873C6.19872 15.874 6.19223 15.8618 6.18247 15.8525C6.17601 15.8464 6.16834 15.8417 6.15997 15.8388C5.62142 15.6318 5.09984 15.3831 4.59997 15.095C4.58601 15.0871 4.57562 15.0741 4.57097 15.0588C4.56631 15.0434 4.56775 15.0268 4.57497 15.0125C4.57922 15.0032 4.58565 14.9951 4.59372 14.9888C4.69872 14.91 4.80372 14.8275 4.90372 14.745C4.91255 14.7379 4.92315 14.7333 4.93438 14.7318C4.94561 14.7303 4.95705 14.7318 4.96747 14.7363C8.24122 16.2313 11.785 16.2313 15.0187 14.7363C15.0295 14.7316 15.0414 14.7299 15.0531 14.7315C15.0647 14.733 15.0758 14.7377 15.085 14.745C15.185 14.8275 15.29 14.91 15.395 14.9888C15.4035 14.995 15.4103 15.0032 15.4149 15.0127C15.4194 15.0222 15.4215 15.0327 15.421 15.0432C15.4205 15.0538 15.4174 15.064 15.412 15.073C15.4066 15.0821 15.399 15.0896 15.39 15.095C14.8912 15.3858 14.369 15.6341 13.8287 15.8375C13.8201 15.8406 13.8123 15.8456 13.8058 15.8521C13.7993 15.8586 13.7943 15.8664 13.7912 15.875C13.7883 15.8834 13.7872 15.8922 13.7878 15.901C13.7885 15.9098 13.7909 15.9184 13.795 15.9263C14.095 16.5075 14.4387 17.0625 14.8162 17.5875C14.8238 17.5984 14.8347 17.6066 14.8473 17.6108C14.8599 17.6151 14.8735 17.6153 14.8862 17.6113C16.6847 17.06 18.3761 16.2061 19.8875 15.0863C19.895 15.081 19.9013 15.0741 19.9059 15.0661C19.9104 15.0581 19.9131 15.0492 19.9137 15.04C20.3312 10.7263 19.215 6.97876 16.9562 3.65751C16.9539 3.65202 16.9505 3.64708 16.9462 3.64298C16.9419 3.63889 16.9368 3.63575 16.9312 3.63376V3.63376ZM6.68372 12.7675C5.69747 12.7675 4.88622 11.8625 4.88622 10.7525C4.88622 9.64126 5.68247 8.73626 6.68372 8.73626C7.69247 8.73626 8.49622 9.64876 8.48122 10.7525C8.48122 11.8625 7.68497 12.7675 6.68372 12.7675ZM13.3287 12.7675C12.3437 12.7675 11.5312 11.8625 11.5312 10.7525C11.5312 9.64126 12.3275 8.73626 13.3287 8.73626C14.3375 8.73626 15.1425 9.64876 15.1262 10.7525C15.1262 11.8625 14.3375 12.7675 13.3287 12.7675Z" fill="white"/>
</g>
<defs>
<clipPath id="clip0_263_8">
<rect width="20" height="20" fill="white"/>
</clipPath>
</defs>
</svg>
