<svg width="21" height="20" viewBox="0 0 21 20" fill="none" xmlns="http://www.w3.org/2000/svg">
<path d="M2.0083 10.0017C2.00877 11.9861 2.71703 13.9053 4.00577 15.4143C5.29451 16.9233 7.07923 17.9232 9.03913 18.2342V12.41H6.92497V10.0017H9.04163V8.16836C8.9949 7.73927 9.04321 7.30515 9.18315 6.89683C9.32309 6.48852 9.55122 6.11602 9.85133 5.8058C10.1515 5.49558 10.5162 5.25525 10.9197 5.10188C11.3231 4.9485 11.7554 4.88585 12.1858 4.91836C12.8108 4.92836 13.4358 4.98419 14.0525 5.08503V7.13419H12.9991C12.8201 7.11074 12.6381 7.12783 12.4666 7.18418C12.295 7.24053 12.1384 7.3347 12.0081 7.45975C11.8779 7.58479 11.7774 7.73751 11.7141 7.90661C11.6508 8.0757 11.6263 8.25686 11.6425 8.43669V10.0017H13.9516L13.5825 12.4109H11.6425V18.2342C13.2155 17.9856 14.6843 17.2915 15.8751 16.234C17.0659 15.1765 17.9287 13.8 18.3614 12.2674C18.7942 10.7348 18.7787 9.11023 18.3168 7.58614C17.8549 6.06205 16.966 4.70222 15.7553 3.66765C14.5446 2.63307 13.0627 1.96708 11.4853 1.74853C9.9078 1.52998 8.30073 1.76801 6.85434 2.43445C5.40795 3.10088 4.18281 4.16782 3.32397 5.50892C2.46513 6.85003 2.00855 8.40915 2.0083 10.0017V10.0017Z" fill="#212529"/>
</svg>
