<svg width="16" height="16" viewBox="0 0 16 16" fill="none" xmlns="http://www.w3.org/2000/svg">
<path d="M7.96333 6.62998V9.50581H11.9567C11.585 11.3333 10.0292 12.3833 7.96333 12.3833C6.80697 12.3674 5.70337 11.8969 4.89127 11.0735C4.07918 10.2502 3.62388 9.14019 3.62388 7.98373C3.62388 6.82727 4.07918 5.71729 4.89127 4.89394C5.70337 4.07059 6.80697 3.60006 7.96333 3.58415C8.9635 3.58295 9.93289 3.93004 10.705 4.56581L12.8717 2.39915C11.9677 1.60395 10.8843 1.03996 9.71438 0.755573C8.5445 0.471183 7.32308 0.474885 6.15494 0.76636C4.9868 1.05784 3.90683 1.62838 3.00769 2.42904C2.10854 3.2297 1.41709 4.23655 0.992655 5.36321C0.568221 6.48987 0.423482 7.70269 0.570859 8.89759C0.718237 10.0925 1.15333 11.2338 1.8388 12.2236C2.52427 13.2133 3.43965 14.022 4.50639 14.5802C5.57313 15.1384 6.75937 15.4294 7.96333 15.4283C11.6858 15.4283 15.0708 12.7208 15.0708 7.98331C15.0651 7.52718 15.0092 7.07306 14.9042 6.62915L7.96333 6.62998V6.62998Z" fill="#212529"/>
</svg>
