<svg width="20" height="20" viewBox="0 0 20 20" fill="none" xmlns="http://www.w3.org/2000/svg">
<path d="M18.3334 7.17331V13.9583C18.3335 14.6501 18.0688 15.3157 17.5937 15.8185C17.1186 16.3213 16.4691 16.6233 15.7784 16.6625L15.6251 16.6666H4.37508C3.6833 16.6667 3.01772 16.402 2.51489 15.9269C2.01205 15.4518 1.71008 14.8023 1.67091 14.1116L1.66675 13.9583V7.17331L9.71008 11.3866C9.79956 11.4335 9.89907 11.458 10.0001 11.458C10.1011 11.458 10.2006 11.4335 10.2901 11.3866L18.3334 7.17331ZM4.37508 3.33331H15.6251C16.2964 3.33323 16.9438 3.58248 17.4418 4.0327C17.9397 4.48293 18.2527 5.10205 18.3201 5.76998L10.0001 10.1283L1.68008 5.76998C1.74468 5.12857 2.03596 4.53124 2.50154 4.08537C2.96712 3.63949 3.57648 3.3743 4.22008 3.33748L4.37508 3.33331H15.6251H4.37508Z" fill="#212529"/>
</svg>
