<svg width="22" height="20" viewBox="0 0 22 20" fill="none" xmlns="http://www.w3.org/2000/svg">
<g clip-path="url(#clip0_286_4)">
<path d="M20.8421 0L11.6882 6.77325L13.3905 2.78158L20.8421 0Z" fill="#E17726"/>
<path d="M0.519293 0.00799561L7.95104 2.78208L9.56738 6.82608L0.519293 0.00799561ZM17.1584 14.4048L21.2043 14.4818L19.7903 19.2853L14.8534 17.9261L17.1584 14.4048ZM4.18163 14.4048L6.47804 17.9261L1.54946 19.2854L0.144043 14.4818L4.18163 14.4048Z" fill="#E27625"/>
<path d="M9.34768 5.79597L9.51301 11.1362L4.56543 10.9111L5.97276 8.78797L5.9906 8.76756L9.34768 5.79597ZM11.9413 5.73639L15.3496 8.76772L15.3673 8.78806L16.7746 10.9112L11.8281 11.1362L11.9413 5.73639ZM6.62301 14.4203L9.32451 16.5252L6.18635 18.0403L6.62301 14.4203ZM14.7177 14.42L15.1453 18.0404L12.0158 16.5251L14.7177 14.42Z" fill="#E27625"/>
<path d="M12.0847 16.3268L15.2603 17.8645L12.3064 19.2683L12.3371 18.3405L12.0847 16.3268ZM9.25413 16.3275L9.01172 18.3253L9.03163 19.2673L6.0708 17.8645L9.25413 16.3275Z" fill="#D5BFB2"/>
<path d="M8.33721 11.8333L9.16705 13.5773L6.3418 12.7496L8.33721 11.8333ZM13.0026 11.8334L15.0075 12.7496L12.173 13.577L13.0026 11.8334Z" fill="#233447"/>
<path d="M6.83874 14.4025L6.38208 18.1558L3.93433 14.4846L6.83874 14.4025ZM14.5012 14.4026L17.4057 14.4846L14.9488 18.156L14.5012 14.4026ZM16.8459 10.6989L14.7322 12.8532L13.1024 12.1084L12.3222 13.7487L11.8107 10.928L16.8459 10.6989ZM4.49283 10.6989L9.52908 10.928L9.01749 13.7487L8.23708 12.1087L6.61599 12.8532L4.49283 10.6989Z" fill="#CC6228"/>
<path d="M4.35059 10.2568L6.74209 12.6836L6.82492 15.0793L4.35059 10.2568ZM16.992 10.2525L14.5132 15.0836L14.6065 12.6836L16.992 10.2525ZM9.41234 10.4047L9.50859 11.0105L9.74642 12.5198L9.5935 17.1552L8.87059 13.4314L8.87034 13.3929L9.41234 10.4047ZM11.9266 10.3963L12.47 13.3929L12.4698 13.4314L11.745 17.1645L11.7163 16.2308L11.6033 12.4923L11.9266 10.3963Z" fill="#E27525"/>
<path d="M14.819 12.5872L14.7381 14.6687L12.2153 16.6342L11.7053 16.2739L12.277 13.3293L14.819 12.5872ZM6.52979 12.5872L9.06304 13.3293L9.6347 16.2739L9.1247 16.6342L6.60179 14.6685L6.52979 12.5872Z" fill="#F5841F"/>
<path d="M5.58813 17.4048L8.8158 18.9342L8.80213 18.2811L9.07222 18.044H12.2667L12.5466 18.2803L12.5259 18.9328L15.7331 17.4087L14.1725 18.6983L12.2854 19.9944H9.0463L7.16047 18.693L5.58813 17.4048Z" fill="#C0AC9D"/>
<path d="M11.8536 16.1232L12.3099 16.4456L12.5773 18.5793L12.1903 18.2526H9.15066L8.771 18.5859L9.02966 16.4458L9.48616 16.1232H11.8536Z" fill="#161616"/>
<path d="M20.2379 0.1875L21.3368 3.48392L20.6505 6.817L21.1392 7.19392L20.4779 7.69842L20.9749 8.08225L20.3168 8.6815L20.7208 8.97408L19.6487 10.2262L15.2512 8.94583L15.2131 8.92542L12.0442 6.25225L20.2379 0.1875ZM1.10225 0.1875L9.29608 6.25225L6.12708 8.92542L6.089 8.94583L1.6915 10.2262L0.619335 8.97408L1.023 8.68175L0.365335 8.08225L0.861335 7.69883L0.190168 7.19292L0.697251 6.81575L0.00341797 3.48408L1.10225 0.1875Z" fill="#763E1A"/>
<path d="M15.0359 8.66584L19.6953 10.0224L21.2091 14.6879H17.2154L14.4637 14.7226L16.4649 10.8219L15.0359 8.66584ZM6.30391 8.66584L4.87466 10.8219L6.87608 14.7226L4.12566 14.6879H0.13916L1.64441 10.0225L6.30391 8.66584ZM13.6186 2.75934L12.3153 6.27926L12.0387 11.0343L11.9329 12.5247L11.9245 16.332H9.41524L9.40708 12.5318L9.30091 11.033L9.02424 6.27926L7.72116 2.75934H13.6186Z" fill="#F5841F"/>
</g>
<defs>
<clipPath id="clip0_286_4">
<rect width="21.34" height="20" fill="white"/>
</clipPath>
</defs>
</svg>
