<svg width="20" height="20" viewBox="0 0 20 20" fill="none" xmlns="http://www.w3.org/2000/svg">
<g clip-path="url(#clip0_256_2)">
<path d="M3.1641 10.7309C3.52972 14.1797 6.4555 16.875 10 16.875C10.9623 16.8761 11.9139 16.6739 12.7926 16.2816C11.2184 15.6359 9.50941 14.7906 7.8016 13.8066C6.13285 12.8461 4.52503 11.7773 3.1641 10.7309ZM19.2469 13.2621C18.9149 12.8203 18.4657 12.3324 17.9188 11.8168C17.8144 12.2712 17.6707 12.7155 17.4891 13.1449C18.611 14.2973 18.786 14.916 18.7457 15.0375C18.6676 15.1246 18.0797 15.3066 16.4743 14.8996C16.2443 14.8413 15.9927 14.7702 15.7196 14.6863C15.5435 14.6322 15.364 14.5737 15.1809 14.5109C15.4685 14.1811 15.7241 13.8247 15.9442 13.4465C15.9508 13.4352 15.9578 13.4238 15.9645 13.4121C16.561 12.3739 16.8749 11.1974 16.875 10C16.8752 9.75209 16.8622 9.50434 16.836 9.25781C16.4621 5.81367 13.5391 3.125 10 3.125C8.49841 3.12416 7.0381 3.61674 5.84378 4.52695C5.11991 5.0779 4.51159 5.76599 4.05355 6.55195C4.0473 6.56328 4.04027 6.57461 4.03363 6.58594C3.81593 6.96519 3.63503 7.36441 3.49339 7.77813C3.34782 7.6513 3.20733 7.52539 3.07191 7.40039C2.86136 7.20508 2.67464 7.02422 2.50863 6.85352C1.35355 5.67149 1.21605 5.07188 1.25238 4.96094C1.33675 4.86602 1.95941 4.70547 3.52308 5.09961C3.80546 4.72771 4.11911 4.38061 4.46058 4.06211C3.72386 3.84297 3.06253 3.69688 2.5055 3.63242C1.30511 3.49492 0.519565 3.73125 0.169956 4.33594C0.0433936 4.55391 -0.0780908 4.92539 0.0637061 5.45313C0.273472 6.23672 1.02113 7.1875 2.07933 8.18359C2.41644 8.50117 2.7848 8.82305 3.17777 9.14609C3.46371 9.38047 3.76371 9.61719 4.0723 9.85234C4.27829 10.0086 4.48858 10.1648 4.70316 10.3211C4.91774 10.4773 5.13519 10.6307 5.3555 10.7813C6.34808 11.4691 7.39691 12.1297 8.42542 12.7223C8.79886 12.9374 9.17178 13.1457 9.54417 13.3473C9.91657 13.5488 10.286 13.7417 10.6524 13.9258C11.5078 14.3555 12.3457 14.743 13.1469 15.0754C13.4904 15.2181 13.8265 15.3504 14.1551 15.4723C14.6196 15.6449 15.068 15.7969 15.4953 15.925L15.5383 15.9379C16.5434 16.2371 17.3907 16.3945 18.0571 16.4066H18.125C18.9703 16.4066 19.543 16.1574 19.8274 15.6645C20.1825 15.0543 19.9868 14.2457 19.2469 13.2621V13.2621Z" fill="#212529"/>
</g>
<defs>
<clipPath id="clip0_256_2">
<rect width="20" height="20" fill="white"/>
</clipPath>
</defs>
</svg>
