<svg width="20" height="20" viewBox="0 0 20 20" fill="none" xmlns="http://www.w3.org/2000/svg">
<path d="M3 6C3 5.20435 3.31607 4.44129 3.87868 3.87868C4.44129 3.31607 5.20435 3 6 3H14C14.7956 3 15.5587 3.31607 16.1213 3.87868C16.6839 4.44129 17 5.20435 17 6V14C17 14.7956 16.6839 15.5587 16.1213 16.1213C15.5587 16.6839 14.7956 17 14 17H6C5.20435 17 4.44129 16.6839 3.87868 16.1213C3.31607 15.5587 3 14.7956 3 14V6ZM9.354 7.104C9.44789 7.01011 9.50063 6.88278 9.50063 6.75C9.50063 6.61722 9.44789 6.48989 9.354 6.396C9.26011 6.30211 9.13278 6.24937 9 6.24937C8.86722 6.24937 8.73989 6.30211 8.646 6.396L7.234 7.808L6.837 7.446C6.73836 7.36169 6.6108 7.31903 6.48129 7.32703C6.35177 7.33504 6.23044 7.39308 6.14293 7.4889C6.05543 7.58472 6.0086 7.7108 6.01234 7.84051C6.01609 7.97022 6.07011 8.09339 6.163 8.184L6.913 8.869C7.00803 8.95552 7.13272 9.00213 7.2612 8.99915C7.38968 8.99617 7.51208 8.94383 7.603 8.853L9.353 7.103L9.354 7.104ZM9.354 11.396C9.30755 11.3494 9.25238 11.3125 9.19163 11.2873C9.13089 11.2621 9.06577 11.2491 9 11.2491C8.93423 11.2491 8.86911 11.2621 8.80837 11.2873C8.74762 11.3125 8.69245 11.3494 8.646 11.396L7.234 12.808L6.837 12.446C6.73836 12.3617 6.6108 12.319 6.48129 12.327C6.35177 12.335 6.23044 12.3931 6.14293 12.4889C6.05543 12.5847 6.0086 12.7108 6.01234 12.8405C6.01609 12.9702 6.07011 13.0934 6.163 13.184L6.913 13.869C7.0079 13.9557 7.13252 14.0024 7.261 13.9996C7.38948 13.9968 7.51195 13.9447 7.603 13.854L9.353 12.104C9.44674 12.0102 9.49939 11.8831 9.49939 11.7505C9.49939 11.6179 9.44674 11.4908 9.353 11.397L9.354 11.396ZM11 12C10.8674 12 10.7402 12.0527 10.6464 12.1464C10.5527 12.2402 10.5 12.3674 10.5 12.5C10.5 12.6326 10.5527 12.7598 10.6464 12.8536C10.7402 12.9473 10.8674 13 11 13H13.5C13.6326 13 13.7598 12.9473 13.8536 12.8536C13.9473 12.7598 14 12.6326 14 12.5C14 12.3674 13.9473 12.2402 13.8536 12.1464C13.7598 12.0527 13.6326 12 13.5 12H11ZM10.5 7.5C10.5 7.63261 10.5527 7.75979 10.6464 7.85355C10.7402 7.94732 10.8674 8 11 8H13.5C13.6326 8 13.7598 7.94732 13.8536 7.85355C13.9473 7.75979 14 7.63261 14 7.5C14 7.36739 13.9473 7.24021 13.8536 7.14645C13.7598 7.05268 13.6326 7 13.5 7H11C10.8674 7 10.7402 7.05268 10.6464 7.14645C10.5527 7.24021 10.5 7.36739 10.5 7.5Z" fill="#212529"/>
</svg>
