<svg width="20" height="20" viewBox="0 0 19 19" fill="none" xmlns="http://www.w3.org/2000/svg">
<path d="M8.45833 11.5833C8.86871 11.5833 9.27508 11.5025 9.65422 11.3455C10.0334 11.1884 10.3779 10.9582 10.668 10.668C10.9582 10.3779 11.1884 10.0334 11.3455 9.65422C11.5025 9.27508 11.5833 8.86871 11.5833 8.45833C11.5833 8.04795 11.5025 7.64159 11.3455 7.26245C11.1884 6.8833 10.9582 6.53881 10.668 6.24862C10.3779 5.95844 10.0334 5.72826 9.65422 5.57121C9.27508 5.41416 8.86871 5.33333 8.45833 5.33333C7.62953 5.33333 6.83468 5.66257 6.24862 6.24862C5.66257 6.83468 5.33333 7.62953 5.33333 8.45833C5.33333 9.28713 5.66257 10.082 6.24862 10.668C6.83468 11.2541 7.62953 11.5833 8.45833 11.5833V11.5833ZM0.125 3.51042C0.125 2.61255 0.481677 1.75145 1.11657 1.11657C1.75145 0.481677 2.61255 0.125 3.51042 0.125H15.4896C16.3875 0.125 17.2485 0.481677 17.8834 1.11657C18.5183 1.75145 18.875 2.61255 18.875 3.51042V15.4896C18.875 16.3875 18.5183 17.2485 17.8834 17.8834C17.2485 18.5183 16.3875 18.875 15.4896 18.875H3.51042C2.61255 18.875 1.75145 18.5183 1.11657 17.8834C0.481677 17.2485 0.125 16.3875 0.125 15.4896V3.51042ZM8.45833 13.1458C9.43178 13.1472 10.3813 12.8442 11.174 12.2792L13.8958 15C13.9674 15.0768 14.0536 15.1383 14.1494 15.181C14.2453 15.2237 14.3487 15.2467 14.4536 15.2485C14.5585 15.2504 14.6627 15.2311 14.76 15.1918C14.8573 15.1525 14.9456 15.094 15.0198 15.0198C15.094 14.9456 15.1525 14.8573 15.1918 14.76C15.2311 14.6627 15.2504 14.5585 15.2485 14.4536C15.2467 14.3487 15.2237 14.2453 15.181 14.1494C15.1383 14.0536 15.0768 13.9674 15 13.8958L12.2792 11.174C12.8879 10.3175 13.1913 9.28124 13.1404 8.23167C13.0896 7.18209 12.6876 6.18002 11.999 5.38633C11.3103 4.59264 10.3749 4.05336 9.34302 3.85506C8.3111 3.65676 7.24247 3.81094 6.30868 4.29285C5.3749 4.77476 4.63012 5.55645 4.19391 6.51244C3.75769 7.46843 3.65534 8.54326 3.90329 9.56439C4.15124 10.5855 4.7351 11.4937 5.56115 12.1432C6.3872 12.7927 7.40753 13.1458 8.45833 13.1458V13.1458Z" fill="#212529"/>
</svg>
