<svg width="20" height="20" viewBox="0 0 20 20" fill="none" xmlns="http://www.w3.org/2000/svg">
<path d="M2 4.5C2 4.10218 2.15804 3.72064 2.43934 3.43934C2.72064 3.15804 3.10218 3 3.5 3H16.5C16.8978 3 17.2794 3.15804 17.5607 3.43934C17.842 3.72064 18 4.10218 18 4.5C18 4.89782 17.842 5.27936 17.5607 5.56066C17.2794 5.84196 16.8978 6 16.5 6H3.5C3.10218 6 2.72064 5.84196 2.43934 5.56066C2.15804 5.27936 2 4.89782 2 4.5V4.5ZM10 9C9.20435 9 8.44129 9.31607 7.87868 9.87868C7.31607 10.4413 7 11.2044 7 12C7 12.7956 7.31607 13.5587 7.87868 14.1213C8.44129 14.6839 9.20435 15 10 15C10.7956 15 11.5587 14.6839 12.1213 14.1213C12.6839 13.5587 13 12.7956 13 12C13 11.2044 12.6839 10.4413 12.1213 9.87868C11.5587 9.31607 10.7956 9 10 9ZM8 12C8 11.4696 8.21071 10.9609 8.58579 10.5858C8.96086 10.2107 9.46957 10 10 10C10.5304 10 11.0391 10.2107 11.4142 10.5858C11.7893 10.9609 12 11.4696 12 12C12 12.5304 11.7893 13.0391 11.4142 13.4142C11.0391 13.7893 10.5304 14 10 14C9.46957 14 8.96086 13.7893 8.58579 13.4142C8.21071 13.0391 8 12.5304 8 12ZM3 7H17V11C17 11.9193 16.8189 12.8295 16.4672 13.6788C16.1154 14.5281 15.5998 15.2997 14.9497 15.9497C14.2997 16.5998 13.5281 17.1154 12.6788 17.4672C11.8295 17.8189 10.9193 18 10 18C9.08075 18 8.1705 17.8189 7.32122 17.4672C6.47194 17.1154 5.70026 16.5998 5.05025 15.9497C4.40024 15.2997 3.88463 14.5281 3.53284 13.6788C3.18106 12.8295 3 11.9193 3 11V7ZM10 8C8.93913 8 7.92172 8.42143 7.17157 9.17157C6.42143 9.92172 6 10.9391 6 12C6 13.0609 6.42143 14.0783 7.17157 14.8284C7.92172 15.5786 8.93913 16 10 16C11.0609 16 12.0783 15.5786 12.8284 14.8284C13.5786 14.0783 14 13.0609 14 12C14 10.9391 13.5786 9.92172 12.8284 9.17157C12.0783 8.42143 11.0609 8 10 8V8Z" fill="#212529"/>
</svg>
