<svg width="20" height="20" viewBox="0 0 20 20" fill="none" xmlns="http://www.w3.org/2000/svg">
<path d="M11.1784 10L13.5359 7.64335C13.6923 7.48699 13.7801 7.27491 13.7801 7.05377C13.7801 6.83263 13.6923 6.62055 13.5359 6.46419C13.3795 6.30782 13.1675 6.21997 12.9463 6.21997C12.7252 6.21997 12.5131 6.30782 12.3567 6.46419L10.0001 8.82169L7.64341 6.46419C7.48705 6.30782 7.27497 6.21997 7.05383 6.21997C6.83269 6.21997 6.62062 6.30782 6.46425 6.46419C6.30788 6.62055 6.22003 6.83263 6.22003 7.05377C6.22003 7.27491 6.30788 7.48699 6.46425 7.64335L8.82175 10L6.46425 12.3567C6.30788 12.5131 6.22003 12.7251 6.22003 12.9463C6.22003 13.1674 6.30788 13.3795 6.46425 13.5359C6.62062 13.6922 6.83269 13.7801 7.05383 13.7801C7.27497 13.7801 7.48705 13.6922 7.64341 13.5359L10.0001 11.1784L12.3567 13.5359C12.5131 13.6922 12.7252 13.7801 12.9463 13.7801C13.1675 13.7801 13.3795 13.6922 13.5359 13.5359C13.6923 13.3795 13.7801 13.1674 13.7801 12.9463C13.7801 12.7251 13.6923 12.5131 13.5359 12.3567L11.1784 10ZM5.00008 1.66669H15.0001C15.8841 1.66669 16.732 2.01788 17.3571 2.643C17.9822 3.26812 18.3334 4.11597 18.3334 5.00002V15C18.3334 15.8841 17.9822 16.7319 17.3571 17.357C16.732 17.9822 15.8841 18.3334 15.0001 18.3334H5.00008C4.11603 18.3334 3.26818 17.9822 2.64306 17.357C2.01794 16.7319 1.66675 15.8841 1.66675 15V5.00002C1.66675 4.11597 2.01794 3.26812 2.64306 2.643C3.26818 2.01788 4.11603 1.66669 5.00008 1.66669V1.66669Z" fill="#212529"/>
</svg>
