<svg width="20" height="20" viewBox="0 0 20 20" fill="none" xmlns="http://www.w3.org/2000/svg">
<path d="M10.1896 1.60159C7.21104 1.59378 4.58994 3.1348 3.09189 5.46292C3.02549 5.56644 3.09971 5.70315 3.22275 5.70315H4.5958C4.68955 5.70315 4.77744 5.66214 4.83604 5.58987C4.97275 5.42386 5.11924 5.2637 5.27354 5.11136C5.91025 4.47659 6.65049 3.97659 7.47471 3.62894C8.32627 3.26956 9.23252 3.08597 10.1681 3.08597C11.1036 3.08597 12.0099 3.26761 12.8614 3.62894C13.6856 3.97659 14.4259 4.47659 15.0626 5.11136C15.6993 5.74612 16.1974 6.48636 16.547 7.30862C16.9083 8.16019 17.0899 9.06448 17.0899 10C17.0899 10.9356 16.9063 11.8399 16.547 12.6914C16.1993 13.5137 15.6993 14.2539 15.0626 14.8887C14.4259 15.5235 13.6856 16.0235 12.8614 16.3711C12.0092 16.7311 11.0932 16.9157 10.1681 16.9141C9.23252 16.9141 8.32627 16.7305 7.47471 16.3711C6.65211 16.0238 5.9046 15.5204 5.27354 14.8887C5.11924 14.7344 4.97471 14.5742 4.83604 14.4102C4.77744 14.3379 4.6876 14.2969 4.5958 14.2969H3.22275C3.09971 14.2969 3.02354 14.4336 3.09189 14.5371C4.58799 16.8594 7.19736 18.3985 10.1681 18.3985C14.7813 18.3985 18.5274 14.6856 18.5743 10.086C18.6212 5.41214 14.8692 1.61331 10.1896 1.60159ZM7.71533 12.1875V10.7032H1.58252C1.49658 10.7032 1.42627 10.6328 1.42627 10.5469V9.45315C1.42627 9.36722 1.49658 9.2969 1.58252 9.2969H7.71533V7.81253C7.71533 7.68167 7.86768 7.60745 7.96924 7.68948L10.7407 9.87698C10.7594 9.8916 10.7745 9.91027 10.7849 9.93159C10.7953 9.95291 10.8007 9.97632 10.8007 10C10.8007 10.0237 10.7953 10.0471 10.7849 10.0685C10.7745 10.0898 10.7594 10.1085 10.7407 10.1231L7.96924 12.3106C7.86768 12.3907 7.71533 12.3184 7.71533 12.1875Z" fill="white"/>
</svg>
