<svg width="20" height="20" viewBox="-1 0 20 20" fill="none" xmlns="http://www.w3.org/2000/svg">
<path d="M10.7143 2.14287C10.7143 1.95343 10.639 1.77175 10.505 1.6378C10.3711 1.50384 10.1894 1.42859 9.99997 1.42859C9.81052 1.42859 9.62884 1.50384 9.49489 1.6378C9.36093 1.77175 9.28568 1.95343 9.28568 2.14287V8.57145C9.28568 8.76089 9.36093 8.94257 9.49489 9.07652C9.62884 9.21048 9.81052 9.28573 9.99997 9.28573C10.1894 9.28573 10.3711 9.21048 10.505 9.07652C10.639 8.94257 10.7143 8.76089 10.7143 8.57145V2.14287ZM7.42854 4.82002C7.51733 4.78445 7.59807 4.73141 7.66597 4.66405C7.73388 4.59669 7.78757 4.51638 7.82384 4.42788C7.86012 4.33938 7.87826 4.24449 7.87717 4.14885C7.87609 4.05321 7.85581 3.95876 7.81753 3.8711C7.77925 3.78344 7.72376 3.70437 7.65434 3.63857C7.58493 3.57276 7.503 3.52157 7.41343 3.48803C7.32385 3.45448 7.22846 3.43927 7.13289 3.4433C7.03733 3.44732 6.94355 3.47049 6.85711 3.51145C5.45577 4.12324 4.26335 5.13056 3.42598 6.40995C2.58862 7.68935 2.14268 9.18524 2.14282 10.7143C2.14282 15.0536 5.66068 18.5714 9.99997 18.5714C14.3393 18.5714 17.8571 15.0536 17.8571 10.7143C17.8571 7.49145 15.9164 4.72287 13.1428 3.51145C12.9705 3.44242 12.7781 3.44319 12.6063 3.5136C12.4345 3.58402 12.2969 3.71854 12.2226 3.88866C12.1483 4.05879 12.1432 4.25116 12.2083 4.42501C12.2734 4.59886 12.4036 4.74053 12.5714 4.82002C13.7181 5.32067 14.6938 6.14501 15.3789 7.19198C16.064 8.23896 16.4288 9.46308 16.4285 10.7143C16.4285 11.5585 16.2623 12.3945 15.9392 13.1744C15.6161 13.9544 15.1426 14.663 14.5457 15.26C13.9487 15.8569 13.24 16.3305 12.4601 16.6535C11.6801 16.9766 10.8442 17.1429 9.99997 17.1429C9.15575 17.1429 8.31981 16.9766 7.53986 16.6535C6.75991 16.3305 6.05123 15.8569 5.45428 15.26C4.85733 14.663 4.38381 13.9544 4.06074 13.1744C3.73767 12.3945 3.57139 11.5585 3.57139 10.7143C3.57111 9.46308 3.93589 8.23896 4.62101 7.19198C5.30614 6.14501 6.28185 5.32067 7.42854 4.82002V4.82002Z" fill="#fff"/>
</svg>
