<svg width="20" height="20" viewBox="0 0 20 20" fill="none" xmlns="http://www.w3.org/2000/svg">
<path d="M10 1.25C5.16797 1.25 1.25 5.16797 1.25 10C1.25 14.832 5.16797 18.75 10 18.75C14.832 18.75 18.75 14.832 18.75 10C18.75 5.16797 14.832 1.25 10 1.25ZM12.8145 10.1348L8.54883 13.2383C8.52544 13.2551 8.49788 13.2651 8.46916 13.2673C8.44045 13.2694 8.41169 13.2636 8.38606 13.2505C8.36042 13.2374 8.3389 13.2175 8.32386 13.1929C8.30881 13.1684 8.30083 13.1401 8.30078 13.1113V6.9082C8.30069 6.87935 8.30858 6.85103 8.3236 6.82639C8.33861 6.80175 8.36016 6.78175 8.38584 6.7686C8.41153 6.75545 8.44035 6.74968 8.46912 6.75191C8.49789 6.75414 8.52548 6.7643 8.54883 6.78125L12.8145 9.88281C12.8346 9.89706 12.851 9.91594 12.8624 9.93786C12.8737 9.95978 12.8797 9.98411 12.8797 10.0088C12.8797 10.0335 12.8737 10.0578 12.8624 10.0797C12.851 10.1016 12.8346 10.1205 12.8145 10.1348V10.1348Z" fill="#212529"/>
</svg>
